<svg xmlns="http://www.w3.org/2000/svg" xmlns:xlink="http://www.w3.org/1999/xlink" width="500" zoomAndPan="magnify" viewBox="0 0 375 299.999988" height="400" preserveAspectRatio="xMidYMid meet" version="1.0"><defs><g/><clipPath id="d7cd79fb4e"><path d="M 253.503906 129.539062 L 373.054688 129.539062 L 373.054688 249.089844 L 253.503906 249.089844 Z M 253.503906 129.539062 " clip-rule="nonzero"/></clipPath><clipPath id="cfe9f74cf1"><path d="M 313.28125 129.539062 C 280.265625 129.539062 253.503906 156.300781 253.503906 189.3125 C 253.503906 222.328125 280.265625 249.089844 313.28125 249.089844 C 346.292969 249.089844 373.054688 222.328125 373.054688 189.3125 C 373.054688 156.300781 346.292969 129.539062 313.28125 129.539062 Z M 313.28125 129.539062 " clip-rule="nonzero"/></clipPath><clipPath id="bc92cdb28e"><path d="M 0.503906 0.539062 L 120.054688 0.539062 L 120.054688 120.089844 L 0.503906 120.089844 Z M 0.503906 0.539062 " clip-rule="nonzero"/></clipPath><clipPath id="4daf369d7a"><path d="M 60.28125 0.539062 C 27.265625 0.539062 0.503906 27.300781 0.503906 60.3125 C 0.503906 93.328125 27.265625 120.089844 60.28125 120.089844 C 93.292969 120.089844 120.054688 93.328125 120.054688 60.3125 C 120.054688 27.300781 93.292969 0.539062 60.28125 0.539062 Z M 60.28125 0.539062 " clip-rule="nonzero"/></clipPath><clipPath id="dfd318abe2"><rect x="0" width="121" y="0" height="121"/></clipPath><clipPath id="88584b2700"><rect x="0" width="262" y="0" height="196"/></clipPath><clipPath id="62ffe37af0"><rect x="0" width="332" y="0" height="206"/></clipPath></defs><g clip-path="url(#d7cd79fb4e)"><g clip-path="url(#cfe9f74cf1)"><g transform="matrix(1, 0, 0, 1, 253, 129)"><g clip-path="url(#dfd318abe2)"><g clip-path="url(#bc92cdb28e)"><g clip-path="url(#4daf369d7a)"><path fill="#b4ec47" d="M 0.503906 0.539062 L 120.054688 0.539062 L 120.054688 120.089844 L 0.503906 120.089844 Z M 0.503906 0.539062 " fill-opacity="1" fill-rule="nonzero"/></g></g></g></g></g></g><g transform="matrix(1, 0, 0, 1, 0, 0)"><g clip-path="url(#88584b2700)"><g fill="#000000" fill-opacity="1"><g transform="translate(-2.286232, 135.457899)"><g><path d="M 29.089844 -84.105469 L 29.089844 -102.542969 L 8.785156 -102.542969 L 8.785156 -84.105469 Z M 28.949219 0 L 28.949219 -74.3125 L 8.640625 -74.3125 L 8.640625 0 Z M 28.949219 0 "/></g></g></g><g fill="#000000" fill-opacity="1"><g transform="translate(22.341359, 135.457899)"><g><path d="M 56.597656 -66.824219 C 51.558594 -73.015625 44.5 -76.1875 34.996094 -76.1875 C 18.144531 -76.1875 4.609375 -61.785156 4.609375 -37.445312 C 4.609375 -13.539062 17.859375 2.449219 36.582031 2.449219 C 45.796875 2.449219 53.144531 -1.441406 58.183594 -9.21875 L 58.902344 0 L 76.90625 0 L 76.90625 -102.542969 L 56.597656 -102.542969 Z M 40.902344 -15.410156 C 31.109375 -15.410156 24.195312 -23.761719 24.195312 -37.445312 C 24.195312 -50.984375 31.109375 -59.335938 40.902344 -59.335938 C 50.695312 -59.335938 57.609375 -50.839844 57.609375 -37.445312 C 57.609375 -24.050781 50.695312 -15.410156 40.902344 -15.410156 Z M 40.902344 -15.410156 "/></g></g></g><g fill="#000000" fill-opacity="1"><g transform="translate(94.927576, 135.457899)"><g><path d="M 79.355469 -34.566406 C 79.355469 -60.632812 63.222656 -76.1875 41.1875 -76.1875 C 18.433594 -76.1875 4.609375 -59.191406 4.609375 -37.445312 C 4.609375 -14.691406 18.722656 2.449219 43.351562 2.449219 C 60.054688 2.449219 72.441406 -5.328125 77.480469 -21.457031 L 57.320312 -22.898438 C 54.871094 -16.417969 49.972656 -13.25 42.917969 -13.25 C 32.835938 -13.25 26.355469 -19.875 25.492188 -31.109375 L 79.355469 -31.109375 Z M 41.910156 -61.351562 C 51.125 -61.351562 57.175781 -55.304688 58.328125 -44.933594 L 25.347656 -44.933594 C 26.355469 -55.160156 32.691406 -61.351562 41.910156 -61.351562 Z M 41.910156 -61.351562 "/></g></g></g><g fill="#000000" fill-opacity="1"><g transform="translate(165.929542, 135.457899)"><g><path d="M 74.457031 0 C 72.296875 -3.746094 71.578125 -8.640625 71.578125 -15.554688 L 71.578125 -48.390625 C 71.578125 -66.679688 60.777344 -76.042969 39.460938 -76.042969 C 19.441406 -76.042969 9.21875 -68.410156 7.777344 -52.136719 L 26.355469 -51.847656 C 27.363281 -58.757812 31.253906 -61.640625 39.605469 -61.640625 C 47.671875 -61.640625 52.136719 -59.046875 52.136719 -53.574219 L 52.136719 -48.101562 L 26.210938 -42.917969 C 11.234375 -39.894531 3.601562 -32.261719 3.601562 -20.449219 C 3.601562 -6.914062 13.683594 2.160156 29.378906 2.160156 C 39.171875 2.160156 47.238281 -1.441406 52.277344 -7.488281 C 52.710938 -4.898438 53.285156 -2.59375 53.863281 0 Z M 35.140625 -12.816406 C 27.652344 -12.816406 23.476562 -16.417969 23.476562 -21.746094 C 23.476562 -26.644531 26.929688 -29.8125 33.125 -31.109375 L 52.136719 -35.140625 L 52.136719 -29.667969 C 52.136719 -18.722656 44.789062 -12.816406 35.140625 -12.816406 Z M 35.140625 -12.816406 "/></g></g></g></g></g><g transform="matrix(1, 0, 0, 1, 0, 82)"><g clip-path="url(#62ffe37af0)"><g fill="#000000" fill-opacity="1"><g transform="translate(-4.536232, 144.809974)"><g><path d="M 50.550781 -76.1875 C 40.039062 -76.1875 32.402344 -72.296875 27.363281 -64.664062 L 26.644531 -74.3125 L 8.640625 -74.3125 L 8.640625 29.378906 L 28.949219 29.378906 L 28.949219 -6.914062 C 33.84375 -0.71875 40.757812 2.449219 48.964844 2.449219 C 67.6875 2.449219 80.9375 -13.539062 80.9375 -37.445312 C 80.9375 -61.785156 67.402344 -76.1875 50.550781 -76.1875 Z M 44.644531 -15.410156 C 34.851562 -15.410156 27.941406 -24.050781 27.941406 -37.445312 C 27.941406 -50.839844 34.851562 -59.335938 44.644531 -59.335938 C 54.4375 -59.335938 61.351562 -50.984375 61.351562 -37.445312 C 61.351562 -23.761719 54.4375 -15.410156 44.644531 -15.410156 Z M 44.644531 -15.410156 "/></g></g></g><g fill="#000000" fill-opacity="1"><g transform="translate(68.049985, 144.809974)"><g><path d="M 54.296875 -34.566406 C 54.296875 -23.476562 48.390625 -16.417969 39.75 -16.417969 C 32.546875 -16.417969 28.949219 -21.316406 28.949219 -29.089844 L 28.949219 -74.3125 L 8.640625 -74.3125 L 8.640625 -24.484375 C 8.640625 -8.351562 17.570312 1.871094 32.980469 1.871094 C 42.484375 1.871094 49.542969 -2.015625 54.4375 -10.082031 L 54.726562 0 L 74.601562 0 L 74.601562 -74.3125 L 54.296875 -74.3125 Z M 54.296875 -34.566406 "/></g></g></g><g fill="#000000" fill-opacity="1"><g transform="translate(138.331886, 144.809974)"><g><path d="M 50.261719 -76.1875 C 40.757812 -76.1875 33.699219 -72.296875 28.804688 -64.230469 L 28.515625 -74.3125 L 8.640625 -74.3125 L 8.640625 0 L 28.949219 0 L 28.949219 -39.75 C 28.949219 -50.839844 34.851562 -57.894531 43.492188 -57.894531 C 50.695312 -57.894531 54.296875 -53 54.296875 -45.222656 L 54.296875 0 L 74.601562 0 L 74.601562 -49.832031 C 74.601562 -65.960938 65.671875 -76.1875 50.261719 -76.1875 Z M 50.261719 -76.1875 "/></g></g></g><g fill="#000000" fill-opacity="1"><g transform="translate(208.613787, 144.809974)"><g><path d="M 79.640625 -74.3125 L 54.152344 -74.3125 L 37.589844 -55.878906 L 28.371094 -44.359375 L 28.949219 -61.496094 L 28.949219 -102.542969 L 8.640625 -102.542969 L 8.640625 0 L 28.949219 0 L 28.949219 -24.628906 L 36.726562 -32.691406 L 41.910156 -23.1875 L 56.167969 0 L 80.21875 0 L 50.695312 -45.078125 Z M 79.640625 -74.3125 "/></g></g></g><g fill="#000000" fill-opacity="1"><g transform="translate(278.031501, 144.809974)"><g><path d="M 46.375 -59.335938 L 46.375 -74.3125 L 32.546875 -73.882812 L 32.546875 -97.210938 L 12.242188 -97.210938 L 12.242188 -74.027344 L 2.160156 -74.3125 L 2.160156 -59.335938 L 12.242188 -59.769531 L 12.242188 -20.882812 C 12.242188 -5.90625 18.144531 0 33.125 0 L 46.375 0 L 46.375 -16.273438 L 39.605469 -16.273438 C 34.566406 -16.273438 32.546875 -18.289062 32.546875 -23.332031 L 32.546875 -59.769531 Z M 46.375 -59.335938 "/></g></g></g></g></g></svg>